<?xml version="1.0" standalone="no"?><!DOCTYPE svg PUBLIC "-//W3C//DTD SVG 1.1//EN" "http://www.w3.org/Graphics/SVG/1.1/DTD/svg11.dtd"><svg t="1500343582437" class="icon" style="" viewBox="0 0 1024 1024" version="1.1" xmlns="http://www.w3.org/2000/svg" p-id="2395" xmlns:xlink="http://www.w3.org/1999/xlink" width="200" height="200"><defs><style type="text/css"></style></defs><path d="M556.8 512l230.4-230.4c12.8-12.8 12.8-32 0-44.8s-32-12.8-44.8 0L512 467.2 281.6 236.8c-12.8-12.8-32-12.8-44.8 0s-12.8 32 0 44.8L467.2 512l-230.4 230.4c-12.8 12.8-12.8 32 0 44.8 6.4 6.4 12.8 6.4 25.6 6.4s19.2 0 25.6-6.4L512 556.8l230.4 230.4c6.4 6.4 12.8 6.4 25.6 6.4s19.2 0 25.6-6.4c12.8-12.8 12.8-32 0-44.8L556.8 512z" p-id="2396" fill="#ffffff"></path></svg>