<?xml version="1.0" standalone="no"?><!DOCTYPE svg PUBLIC "-//W3C//DTD SVG 1.1//EN" "http://www.w3.org/Graphics/SVG/1.1/DTD/svg11.dtd"><svg t="1500282737567" class="icon" style="" viewBox="0 0 1024 1024" version="1.1" xmlns="http://www.w3.org/2000/svg" p-id="6401" xmlns:xlink="http://www.w3.org/1999/xlink" width="200" height="200"><defs><style type="text/css"></style></defs><path d="M82.368 245.041H451.968v0.178c8.002 1.244 14.107 8.357 14.107 16.922 0 8.594-6.105 15.707-14.107 16.922v0.118h-0.979l-1.453 0.059-1.451-0.059H83.791l-1.422 0.059c-9.127 0-16.538-7.676-16.538-17.13 0-9.395 7.41-17.069 16.537-17.069zM82.368 430.508H451.968v0.178c8.002 1.244 14.107 8.357 14.107 16.922 0 8.594-6.105 15.707-14.107 16.922v0.118h-0.979l-1.453 0.059-1.451-0.059H83.791l-1.422 0.059c-9.127 0-16.538-7.676-16.538-17.13 0-9.423 7.41-17.069 16.537-17.069zM82.368 615.973h0.09l586.333-0.059H684.232v0.178c8.001 1.216 14.076 8.328 14.076 16.924 0 8.564-6.075 15.678-14.076 16.922v0.119h-0.979l-1.453 0.059-1.451-0.059H669.59l-585.8 0.088-1.422 0.059c-9.127 0-16.538-7.675-16.538-17.129s7.411-17.102 16.538-17.102zM82.368 801.44h0.09l586.333-0.059H684.232v0.208c8.001 1.244 14.076 8.328 14.076 16.922 0 8.565-6.075 15.678-14.076 16.893v0.119h-0.979l-1.453 0.088-1.451-0.088H669.59l-585.8 0.088-1.422 0.059c-9.127 0-16.538-7.646-16.538-17.071 0.001-9.482 7.411-17.159 16.538-17.159z" p-id="6402"></path><path d="M699.555 186.212c53.553 0 102.009 21.693 137.128 56.813 35.09 35.091 56.784 83.577 56.784 137.1 0 53.525-21.693 102.011-56.784 137.1-6.845 6.818-14.196 13.189-21.99 18.939l148.599 257.424c5.215 9.039 2.133 20.539-6.847 25.755-9.01 5.245-20.539 2.133-25.755-6.816l-148.362-256.95c-25.102 11.825-53.168 18.493-82.745 18.493-53.553 0-102.04-21.724-137.128-56.814-35.09-35.09-56.784-83.546-56.784-137.1s21.693-102.039 56.784-137.1c35.03-35.121 83.546-56.844 137.1-56.844z m110.366 83.546c-28.244-28.244-67.305-45.73-110.396-45.73-43.092 0-82.124 17.486-110.397 45.73-28.274 28.244-45.73 67.305-45.73 110.397s17.486 82.124 45.73 110.397c28.244 28.215 67.305 45.701 110.397 45.701s82.124-17.486 110.396-45.701c28.244-28.244 45.73-67.305 45.73-110.397s-17.456-82.154-45.73-110.397z" p-id="6403"></path></svg>